<?xml version="1.0" encoding="UTF-8"?>
<svg version="1.1" xmlns="http://www.w3.org/2000/svg" width="100" height="100">
<path d="M0 0 C1.23590378 0.00707474 2.47180756 0.01414948 3.74516296 0.0214386 C7.01883417 0.04465411 10.29126035 0.08951348 13.56451416 0.1449585 C16.90942924 0.19625932 20.25439871 0.2185484 23.59960938 0.24414062 C30.15413112 0.29923981 36.70782315 0.38289164 43.26171875 0.48828125 C42.47796875 1.08640625 41.69421875 1.68453125 40.88671875 2.30078125 C37.15853443 5.40760152 35.94803339 7.80173269 35.26171875 12.48828125 C35.04290856 15.09509395 34.85159022 17.69048314 34.69921875 20.30078125 C34.63444336 21.34008789 34.63444336 21.34008789 34.56835938 22.40039062 C34.46310422 24.09616811 34.36199012 25.79220177 34.26171875 27.48828125 C32.94171875 27.48828125 31.62171875 27.48828125 30.26171875 27.48828125 C30.26171875 28.14828125 30.26171875 28.80828125 30.26171875 29.48828125 C31.58171875 29.48828125 32.90171875 29.48828125 34.26171875 29.48828125 C34.26171875 30.80828125 34.26171875 32.12828125 34.26171875 33.48828125 C33.60171875 33.48828125 32.94171875 33.48828125 32.26171875 33.48828125 C32.26171875 34.14828125 32.26171875 34.80828125 32.26171875 35.48828125 C32.92171875 35.48828125 33.58171875 35.48828125 34.26171875 35.48828125 C34.26171875 42.74828125 34.26171875 50.00828125 34.26171875 57.48828125 C32.61171875 57.48828125 30.96171875 57.48828125 29.26171875 57.48828125 C29.26171875 58.14828125 29.26171875 58.80828125 29.26171875 59.48828125 C30.91171875 59.48828125 32.56171875 59.48828125 34.26171875 59.48828125 C34.31555723 61.94690526 34.35530913 64.40435675 34.38671875 66.86328125 C34.40347656 67.56195313 34.42023438 68.260625 34.4375 68.98046875 C34.45516142 70.81725611 34.36475136 72.65430088 34.26171875 74.48828125 C32.26171875 76.48828125 32.26171875 76.48828125 30.38671875 76.75390625 C29.68546875 76.74875 28.98421875 76.74359375 28.26171875 76.73828125 C27.56046875 76.7434375 26.85921875 76.74859375 26.13671875 76.75390625 C24.26171875 76.48828125 24.26171875 76.48828125 22.26171875 74.48828125 C21.70880502 71.15324604 21.36912293 67.81906184 21.01953125 64.45703125 C20.591301 61.47951548 20.591301 61.47951548 18.70361328 60.32861328 C15.3049473 59.15902637 11.98942571 59.1310245 8.43359375 59.07421875 C7.68458801 59.0548526 6.93558228 59.03548645 6.16387939 59.01553345 C3.77994039 58.95592409 1.39595261 58.90942771 -0.98828125 58.86328125 C-2.60809356 58.82508424 -4.22788593 58.7860315 -5.84765625 58.74609375 C-9.81109207 58.64863221 -13.7743247 58.56891848 -17.73828125 58.48828125 C-17.73828125 51.55828125 -17.73828125 44.62828125 -17.73828125 37.48828125 C-16.41828125 37.48828125 -15.09828125 37.48828125 -13.73828125 37.48828125 C-13.73828125 36.82828125 -13.73828125 36.16828125 -13.73828125 35.48828125 C-15.05828125 35.48828125 -16.37828125 35.48828125 -17.73828125 35.48828125 C-17.86231246 31.30747524 -17.95281726 27.12765623 -18.01293945 22.94555664 C-18.03801272 21.52446834 -18.07208124 20.10350812 -18.11547852 18.68286133 C-18.17645983 16.63460663 -18.20455887 14.58806242 -18.2265625 12.5390625 C-18.25274658 11.30841064 -18.27893066 10.07775879 -18.3059082 8.80981445 C-17.73828125 5.48828125 -17.73828125 5.48828125 -16.00390625 2.578125 C-10.88550339 -0.69740793 -5.94710883 -0.12798799 0 0 Z M-1.73828125 22.48828125 C-1.73828125 23.80828125 -1.73828125 25.12828125 -1.73828125 26.48828125 C4.86171875 26.48828125 11.46171875 26.48828125 18.26171875 26.48828125 C18.26171875 25.16828125 18.26171875 23.84828125 18.26171875 22.48828125 C11.66171875 22.48828125 5.06171875 22.48828125 -1.73828125 22.48828125 Z M-1.73828125 30.48828125 C-1.73828125 31.80828125 -1.73828125 33.12828125 -1.73828125 34.48828125 C2.22171875 34.48828125 6.18171875 34.48828125 10.26171875 34.48828125 C10.26171875 33.16828125 10.26171875 31.84828125 10.26171875 30.48828125 C6.30171875 30.48828125 2.34171875 30.48828125 -1.73828125 30.48828125 Z M-1.73828125 38.48828125 C-1.73828125 39.80828125 -1.73828125 41.12828125 -1.73828125 42.48828125 C4.86171875 42.48828125 11.46171875 42.48828125 18.26171875 42.48828125 C18.26171875 41.16828125 18.26171875 39.84828125 18.26171875 38.48828125 C11.66171875 38.48828125 5.06171875 38.48828125 -1.73828125 38.48828125 Z M-1.73828125 46.48828125 C-1.73828125 47.80828125 -1.73828125 49.12828125 -1.73828125 50.48828125 C2.22171875 50.48828125 6.18171875 50.48828125 10.26171875 50.48828125 C10.26171875 49.16828125 10.26171875 47.84828125 10.26171875 46.48828125 C6.30171875 46.48828125 2.34171875 46.48828125 -1.73828125 46.48828125 Z " fill="#E6E2DE" transform="translate(39.73828125,9.51171875)"/>
<path d="M0 0 C15.84 0 31.68 0 48 0 C48.66 3.96 49.32 7.92 50 12 C52.66717988 16.01849001 52.66717988 16.01849001 56 18 C48.82856131 18.12682581 41.65741202 18.21436241 34.48510742 18.2746582 C32.04554436 18.29979496 29.60605655 18.33390946 27.16674805 18.37719727 C23.65915354 18.43788229 20.1525551 18.466219 16.64453125 18.48828125 C15.55477493 18.51408768 14.46501862 18.5398941 13.34223938 18.56648254 C8.81856355 18.56815632 5.80466222 18.42828894 1.7722168 16.28198242 C0 13 0 13 0 0 Z " fill="#E6E2DE" transform="translate(10,72)"/>
<path d="M0 0 C2 2 2 2 2.1953125 4.8203125 C2.13020833 7.88020833 2.06510417 10.94010417 2 14 C-1.96 14 -5.92 14 -10 14 C-10.36965377 3.52647658 -10.36965377 3.52647658 -8.7109375 1.1640625 C-5.88957722 -0.75549313 -3.29382853 -0.29943896 0 0 Z " fill="#E6E2DE" transform="translate(88,14)"/>
</svg>
